<?xml version="1.0" encoding="UTF-8"?>
<svg version="1.1" xmlns="http://www.w3.org/2000/svg" width="819" height="304">
<path d="M0 0 C4.98268326 5.21905343 6.55282071 11.59571576 8.75 18.3125 C9.16121094 19.51068359 9.57242188 20.70886719 9.99609375 21.94335938 C13.93766901 33.82701236 13.93766901 33.82701236 13 40 C9.92811595 43.99186557 6.12615595 45.37128616 1.48828125 46.90234375 C0.76062057 47.14795547 0.0329599 47.3935672 -0.7167511 47.6466217 C-2.25359014 48.15967577 -3.79265766 48.66609656 -5.33374023 49.16625977 C-7.67239347 49.93255015 -9.9943579 50.73935553 -12.31835938 51.54882812 C-25.90418047 56.10836989 -25.90418047 56.10836989 -32.2878418 53.05102539 C-32.852854 52.70418701 -33.41786621 52.35734863 -34 52 C-34.91910156 51.45859375 -35.83820313 50.9171875 -36.78515625 50.359375 C-37.53667969 49.82828125 -38.28820312 49.2971875 -39.0625 48.75 C-42.49515945 46.56899885 -44.55184296 45.59340631 -48.625 46.125 C-49.73875 46.41375 -50.8525 46.7025 -52 47 C-52.29003906 48.06927734 -52.29003906 48.06927734 -52.5859375 49.16015625 C-54.02412775 54.45013328 -55.47852632 59.73336033 -57 65 C-56.38017242 65.09288803 -55.76034485 65.18577606 -55.12173462 65.28147888 C-53 66 -53 66 -51.90292358 67.51527405 C-51.62220001 68.16902512 -51.34147644 68.82277618 -51.05224609 69.49633789 C-50.7241243 70.24043915 -50.3960025 70.98454041 -50.05793762 71.75119019 C-49.54586006 72.97456589 -49.54586006 72.97456589 -49.0234375 74.22265625 C-48.65623093 75.06724396 -48.28902435 75.91183167 -47.91069031 76.78201294 C-46.71764292 79.53618239 -45.54619393 82.29897557 -44.375 85.0625 C-43.564265 86.94558345 -42.75233288 88.82815194 -41.93920898 90.71020508 C-37.17211728 101.77365901 -32.46333887 112.86628323 -27.90576172 124.01782227 C-26.0954724 128.44496958 -24.21409225 132.75921516 -22 137 C-16.9786742 131.59139109 -12.46846376 126.00940633 -8.18359375 120.00390625 C-5.77671903 116.69283888 -3.28359095 113.46445143 -0.75 110.25 C-0.29326904 109.67040527 0.16346191 109.09081055 0.6340332 108.49365234 C3.16087444 105.2983138 5.70679343 102.11899028 8.265625 98.94921875 C8.80541992 98.27922852 9.34521484 97.60923828 9.90136719 96.91894531 C10.94070354 95.63072695 11.98287178 94.34478645 13.02832031 93.06152344 C13.50366211 92.47274414 13.97900391 91.88396484 14.46875 91.27734375 C14.88576172 90.76421631 15.30277344 90.25108887 15.73242188 89.72241211 C17.30563011 87.58470331 18.63442484 85.2759586 20 83 C2.18 83 -15.64 83 -34 83 C-34 77.06 -34 71.12 -34 65 C-26.55696233 64.86755409 -19.11389789 64.73682468 -11.67078209 64.60884857 C-8.21198074 64.54931533 -4.75319384 64.48912481 -1.29443359 64.42724609 C12.10235589 64.18809584 25.49937344 63.95584056 38.8984375 63.90625 C40.27861557 63.89652161 40.27861557 63.89652161 41.68667603 63.88659668 C43.79145626 63.8850589 45.89618269 63.93632155 48 64 C49.77242921 65.77242921 49.50103433 68.27786802 49.75 70.6875 C49.92789063 72.24017578 49.92789063 72.24017578 50.109375 73.82421875 C49.87889807 80.51628101 45.51903016 85.12714737 41.4375 90.0625 C40.35446912 91.39371861 39.27245401 92.72576419 38.19140625 94.05859375 C37.65273926 94.72101074 37.11407227 95.38342773 36.55908203 96.06591797 C34.2864768 98.88514419 32.07470731 101.74873073 29.875 104.625 C29.47007324 105.15367676 29.06514648 105.68235352 28.64794922 106.22705078 C27.43105007 107.81733328 26.2155219 109.40866456 25 111 C15.48000629 123.43404519 5.94091412 135.83161432 -4.19921875 147.76953125 C-6.10469642 149.65189967 -6.10469642 149.65189967 -6 151 C-5.28812027 150.99777939 -4.57624054 150.99555878 -3.8427887 150.99327087 C2.85274235 150.97326747 9.54826511 150.95802562 16.24381924 150.94818783 C19.68640348 150.94296018 23.12896312 150.93586469 26.5715332 150.92456055 C30.52555043 150.91165765 34.47955756 150.90677082 38.43359375 150.90234375 C40.29605995 150.89460182 40.29605995 150.89460182 42.19615173 150.88670349 C43.90781273 150.88659019 43.90781273 150.88659019 45.65405273 150.88647461 C46.664431 150.884254 47.67480927 150.88203339 48.71580505 150.87974548 C51 151 51 151 52 152 C52.09986975 154.84335048 52.13877881 157.65697163 52.125 160.5 C52.12886719 161.29792969 52.13273438 162.09585938 52.13671875 162.91796875 C52.12660767 168.87339233 52.12660767 168.87339233 51 170 C48.52123859 170.11096664 46.07007347 170.1573856 43.59033203 170.16113281 C42.81471924 170.16609772 42.03910645 170.17106262 41.23999023 170.17617798 C38.66258878 170.19083694 36.08524887 170.19760788 33.5078125 170.203125 C31.72280881 170.20887352 29.93780515 170.21463129 28.15280151 170.22039795 C24.40508739 170.23091867 20.65739479 170.23675427 16.90966797 170.24023438 C12.10188677 170.24572039 7.29438862 170.26974611 2.48669624 170.29820633 C-1.20212643 170.3168091 -4.89088062 170.32203705 -8.57974625 170.32357025 C-10.35241366 170.32660283 -12.12507969 170.33465163 -13.89770126 170.34775543 C-16.37586882 170.36476645 -18.85334109 170.36294801 -21.33154297 170.35644531 C-22.43509628 170.37026749 -22.43509628 170.37026749 -23.5609436 170.3843689 C-28.52892046 170.34342932 -28.52892046 170.34342932 -30.91209412 168.60603333 C-32.21962568 166.67577511 -33.14650116 164.77510301 -34.04296875 162.62109375 C-34.56987305 161.36329102 -34.56987305 161.36329102 -35.10742188 160.08007812 C-35.46384766 159.20802734 -35.82027344 158.33597656 -36.1875 157.4375 C-36.73954102 156.12362305 -36.73954102 156.12362305 -37.30273438 154.78320312 C-40 148.28274293 -40 148.28274293 -40 146 C-53.2 146 -66.4 146 -80 146 C-79.27921098 141.67526588 -78.65545055 138.66925947 -77.0625 134.75 C-76.72347656 133.89921875 -76.38445312 133.0484375 -76.03515625 132.171875 C-75 130 -75 130 -73 128 C-70.56982422 127.77294922 -70.56982422 127.77294922 -67.5546875 127.8046875 C-66.47832031 127.81113281 -65.40195312 127.81757813 -64.29296875 127.82421875 C-63.16503906 127.84097656 -62.03710938 127.85773438 -60.875 127.875 C-59.73933594 127.88402344 -58.60367188 127.89304687 -57.43359375 127.90234375 C-54.62218701 127.92596902 -51.81119702 127.95890987 -49 128 C-49.35304199 127.12786865 -49.70608398 126.2557373 -50.06982422 125.35717773 C-51.3884128 122.09496096 -52.70379758 118.83148933 -54.01708984 115.56713867 C-54.58418648 114.15940277 -55.15252457 112.75216627 -55.72216797 111.34545898 C-56.54468047 109.31366584 -57.36258767 107.28006871 -58.1796875 105.24609375 C-58.67194824 104.02591553 -59.16420898 102.8057373 -59.67138672 101.54858398 C-60.98073142 98.05146433 -62.02646949 94.60125497 -63 91 C-63.66 91 -64.32 91 -65 91 C-65.57427734 92.83304688 -65.57427734 92.83304688 -66.16015625 94.703125 C-68.22057225 100.87595331 -70.83705104 106.7893639 -73.4375 112.75 C-74.51195953 115.23372522 -75.58530882 117.71788504 -76.65625 120.203125 C-76.93061386 120.83943848 -77.20497772 121.47575195 -77.48765564 122.13134766 C-81.99819756 132.61736007 -86.31161821 143.18650136 -90.65576172 153.7421875 C-92.75670367 158.83390008 -94.87820926 163.91694414 -97 169 C-103.6 169 -110.2 169 -117 169 C-117.33 168.34 -117.66 167.68 -118 167 C-117.22112028 164.74109676 -116.37979364 162.60454766 -115.4296875 160.41796875 C-115.01252975 159.44117912 -115.01252975 159.44117912 -114.58694458 158.44465637 C-113.99395915 157.06349922 -113.39681863 155.68411987 -112.79589844 154.30639648 C-111.88572206 152.21217041 -110.99689594 150.10976829 -110.109375 148.00585938 C-109.5299324 146.66350641 -108.9492414 145.32169151 -108.3671875 143.98046875 C-108.10549774 143.35633591 -107.84380798 142.73220306 -107.57418823 142.0891571 C-104.95991232 136.1894507 -100.80595315 132.59857349 -95.9375 128.5625 C-87.66139932 121.3286902 -84.97813239 112.84751773 -84.11328125 102.1640625 C-83.95496194 99.12496129 -83.95496194 99.12496129 -84.14013672 96.59155273 C-84.47752922 88.97718654 -82.68351981 83.66098363 -79.5 76.8125 C-75.26889406 67.24560023 -71.70082749 57.62867542 -68.51367188 47.66723633 C-68.05831055 46.24640747 -68.05831055 46.24640747 -67.59375 44.796875 C-67.33271484 43.96510742 -67.07167969 43.13333984 -66.80273438 42.27636719 C-64.715625 36.3578125 -64.715625 36.3578125 -61.03125 34.515625 C-59.8659375 34.09796875 -58.700625 33.6803125 -57.5 33.25 C-56.3346875 32.82203125 -55.169375 32.3940625 -53.96875 31.953125 C-51 31 -51 31 -49 31 C-48.82984375 30.3709375 -48.6596875 29.741875 -48.484375 29.09375 C-44.24718637 14.12836038 -44.24718637 14.12836038 -38 10 C-33.84301289 8.3019597 -29.58180882 6.91243628 -25.3203125 5.5012207 C-23.26572954 4.81773267 -21.21895534 4.11379566 -19.171875 3.40820312 C-5.87674776 -1.09318649 -5.87674776 -1.09318649 0 0 Z M-36 29 C-36.45319325 32.17235276 -36.52990283 34.06487736 -34.9375 36.875 C-31.8930714 38.64273274 -29.4368988 38.36823916 -26 38 C-23.93597315 37.01951062 -23.93597315 37.01951062 -23 35 C-22.45375842 31.33237794 -22.52101702 29.6741242 -24.6875 26.625 C-26.88575314 24.84807743 -26.88575314 24.84807743 -29.5 24.5 C-32.87013879 25.17402776 -34.01677007 26.2087875 -36 29 Z " fill="#FEFEFE" transform="translate(579,59)"/>
<path d="M0 0 C0.84304688 0.40089844 1.68609375 0.80179687 2.5546875 1.21484375 C15.40873834 8.12239443 24.17902192 19.1235334 28.61132812 32.90014648 C31.99658395 45.12953373 30.87439165 58.37893383 26 70 C25.67257812 70.78375 25.34515625 71.5675 25.0078125 72.375 C18.60309738 85.46492871 6.79516084 95.1213304 -6.8125 99.875 C-23.11117277 104.09378829 -37.23211089 101.38394456 -52 94 C-51.01 99.61 -50.02 105.22 -49 111 C-43.43701155 111.20887823 -43.43701155 111.20887823 -37.87304688 111.38793945 C-30.26497687 111.74230445 -23.61514233 113.54083384 -18 119 C-12.87213645 125.97959205 -12.38109691 131.51540129 -13 140 C-15.13912091 146.19219211 -19.64943244 150.37732215 -25 154 C-31.15575988 156.31110985 -36.51499183 156.32602336 -42.67578125 154.1015625 C-49.09361276 151.05983395 -52.75966209 146.90240652 -55.34765625 140.3046875 C-56.87494119 134.90889039 -56.53708141 130.07416282 -54 125 C-54.5775 124.938125 -55.155 124.87625 -55.75 124.8125 C-58.98534567 123.64418073 -60.04421548 121.80380046 -62 119 C-63.265625 115.73828125 -63.265625 115.73828125 -64.25 112.3125 C-64.58515625 111.17425781 -64.9203125 110.03601563 -65.265625 108.86328125 C-66 106 -66 106 -66 104 C-63.525 103.505 -63.525 103.505 -61 103 C-61.00967804 101.83790512 -61.01935608 100.67581024 -61.02932739 99.47850037 C-61.11408477 88.51694689 -61.14618305 77.55632965 -61.12697029 66.59445095 C-61.11877874 60.95886603 -61.12901944 55.32458023 -61.18164062 49.68920898 C-61.23176074 44.24860885 -61.23312761 38.80996342 -61.20095444 33.36924934 C-61.19720848 31.29563243 -61.21091353 29.22190692 -61.24249649 27.14852715 C-61.47333978 10.89134505 -61.47333978 10.89134505 -57.81422424 6.1940918 C-55.2502487 4.36028404 -52.93294163 3.12875963 -50 2 C-48.86949219 1.42507812 -47.73898437 0.85015625 -46.57421875 0.2578125 C-45.62160156 -0.11601563 -44.66898437 -0.48984375 -43.6875 -0.875 C-42.23923828 -1.45894531 -42.23923828 -1.45894531 -40.76171875 -2.0546875 C-28.33950724 -6.30670332 -11.75766595 -5.73500831 0 0 Z M-49.3125 26.875 C-55.36645544 35.5940119 -57.10633804 45.63803818 -55.375 56.125 C-53.2546087 64.8733694 -49.1888814 72.44965215 -42 78 C-33.0418437 83.41118834 -23.31170601 84.61832426 -13.0703125 82.3515625 C-4.31725144 79.16119445 1.64355639 73.55613207 5.9921875 65.40625 C10.01878355 55.79236175 10.70336442 45.00598871 7.375 35.0625 C3.74252297 26.48475599 -1.60038058 19.6764007 -10.31640625 16.03125 C-25.10807144 11.0312505 -39.48085477 14.57940437 -49.3125 26.875 Z M-39.9375 128.0625 C-41.63902633 131.1652833 -41.42519574 133.53769185 -41 137 C-39.60314994 139.6469872 -39.60314994 139.6469872 -37 141 C-33.18846501 141 -30.94902579 140.80074051 -28 138.3125 C-26.62305733 135.12832007 -27.019776 133.29075199 -28 130 C-29 128 -29 128 -31 127 C-34.4093712 126.63471023 -36.88023824 126.3859371 -39.9375 128.0625 Z " fill="#FEFEFE" transform="translate(401,127)"/>
<path d="M0 0 C1.50810372 1.36610694 3.00926957 2.73995568 4.5 4.125 C5.38558594 4.89457031 5.38558594 4.89457031 6.2890625 5.6796875 C7.5 7.125 7.5 7.125 7.375 10.375 C6.45992173 14.29676402 5.20541882 17.49171642 3.5 21.125 C0.5782168 20.8119518 -0.35149204 20.30533109 -2.25 18 C-2.9925 17.05125 -3.735 16.1025 -4.5 15.125 C-7.06706934 12.67378414 -9.78225004 10.40662455 -12.5 8.125 C-13.7065625 7.08666016 -13.7065625 7.08666016 -14.9375 6.02734375 C-33.7351685 -9.83318905 -54.80375006 -20.38929462 -78.5 -26.875 C-79.60085938 -27.19082031 -80.70171875 -27.50664062 -81.8359375 -27.83203125 C-121.25798904 -38.11824778 -164.30721763 -29.99131501 -199.39453125 -10.359375 C-213.82875828 -1.88284158 -226.71662885 9.3837542 -237.5 22.125 C-234.73834315 23.96610457 -232.00919306 25.44924405 -229.0546875 26.953125 C-227.43820312 27.78263672 -227.43820312 27.78263672 -225.7890625 28.62890625 C-223.53793137 29.78022847 -221.28535634 30.92873247 -219.03125 32.07421875 C-199.90502941 41.90991176 -199.90502941 41.90991176 -197.5 49.125 C-196.29226233 53.56111335 -195.5 57.5075876 -195.5 62.125 C-200.12 62.125 -204.74 62.125 -209.5 62.125 C-209.74105469 60.78050781 -209.98210937 59.43601562 -210.23046875 58.05078125 C-211.7711262 53.44144465 -213.8381231 51.86568536 -218.05078125 49.54296875 C-220.28999877 48.435925 -222.54474615 47.3598459 -224.8125 46.3125 C-227.05991064 45.22537446 -229.30604652 44.13560891 -231.55078125 43.04296875 C-232.59314941 42.54071777 -233.63551758 42.0384668 -234.70947266 41.52099609 C-237.88632935 39.93173393 -240.7106618 38.32191238 -243.5 36.125 C-243.5 35.465 -243.5 34.805 -243.5 34.125 C-244.985 35.115 -244.985 35.115 -246.5 36.125 C-250.75390299 38.54100981 -253.65147518 38.76087211 -258.5 38.125 C-261.0625 36.375 -261.0625 36.375 -262.5 34.125 C-261.04750964 23.09075872 -249.53838071 13.40327097 -242.19873047 5.87939453 C-240.71469488 4.34673001 -239.26266615 2.78320419 -237.81640625 1.21484375 C-224.17350547 -13.23684054 -207.36670438 -23.47299961 -189.5 -31.875 C-188.83581055 -32.18904785 -188.17162109 -32.5030957 -187.48730469 -32.82666016 C-172.03133158 -39.96365889 -154.416572 -44.24677994 -137.5 -45.875 C-136.406875 -45.98457031 -135.31375 -46.09414063 -134.1875 -46.20703125 C-83.96033536 -50.64929227 -37.28231797 -33.30123351 0 0 Z " fill="#FEFEFE" transform="translate(526.5,58.875)"/>
<path d="M0 0 C0.54140625 0.4434375 1.0828125 0.886875 1.640625 1.34375 C-0.10744629 6.81112191 -2.01731581 12.10199848 -4.359375 17.34375 C-8.1804635 16.72074644 -11.33980252 15.5641606 -14.859375 13.96875 C-27.49005259 8.63511013 -41.27957267 5.66057521 -54.5546875 10.39453125 C-57.33106009 11.85483112 -58.96175518 13.54851036 -60.359375 16.34375 C-60.71517614 20.11524207 -60.72207994 22.60106845 -59.046875 26.03125 C-52.38632648 31.76241966 -42.29029567 33.24144306 -33.921875 35.28125 C-19.25187784 39.00487399 -5.76728165 42.84014235 2.640625 56.34375 C5.16280102 63.91027807 4.9967685 74.68208945 1.640625 81.96875 C-4.32026585 91.74859599 -13.50807056 96.41359577 -24.41015625 99.09375 C-44.92948964 102.92615468 -64.93310676 98.46684745 -82.63671875 87.73828125 C-84.359375 86.34375 -84.359375 86.34375 -85.359375 83.34375 C-84.29735252 80.69592828 -83.18508125 78.20407278 -81.921875 75.65625 C-81.58349609 74.95435547 -81.24511719 74.25246094 -80.89648438 73.52929688 C-80.05956152 71.79651294 -79.21060107 70.06955248 -78.359375 68.34375 C-77.84890625 68.63507813 -77.3384375 68.92640625 -76.8125 69.2265625 C-74.33963579 70.620837 -71.8525381 71.98608692 -69.359375 73.34375 C-68.39644531 73.87097656 -67.43351562 74.39820313 -66.44140625 74.94140625 C-53.76650554 81.61499563 -38.00737422 84.22026289 -23.921875 80.15625 C-20.0708803 78.19697199 -18.71739476 77.41780929 -17.359375 73.34375 C-16.59672839 69.02208587 -16.72285998 66.30949693 -19.171875 62.59375 C-26.76851698 57.23141449 -36.36510515 55.48092425 -45.296875 53.40625 C-71.20290116 47.10623124 -71.20290116 47.10623124 -78.734375 36.38671875 C-82.53983657 29.26469172 -82.52720034 20.64517294 -80.81640625 12.87890625 C-77.86507342 4.38363329 -73.09747761 -0.47508344 -65.359375 -4.65625 C-46.43991286 -13.01477815 -17.47414225 -12.26661641 0 0 Z " fill="#FEFEFE" transform="translate(271.359375,130.65625)"/>
<path d="M0 0 C6.6 0 13.2 0 20 0 C20 34.32 20 68.64 20 104 C13.4 104 6.8 104 0 104 C-0.93027709 99.34861453 -1.12875764 95.11917642 -1.09765625 90.41796875 C-1.09664917 89.69565063 -1.09564209 88.97333252 -1.09460449 88.22912598 C-1.08939952 85.54856768 -1.07543837 82.86803213 -1.0625 80.1875 C-1.0315625 71.1846875 -1.0315625 71.1846875 -1 62 C-19.315 61.505 -19.315 61.505 -38 61 C-38 43 -38 43 -37 42 C-34.26105915 41.91141354 -31.5474673 41.88476521 -28.80859375 41.90234375 C-27.57883568 41.90446617 -27.57883568 41.90446617 -26.32423401 41.90663147 C-23.69528618 41.91224711 -21.06642227 41.92480221 -18.4375 41.9375 C-16.65950643 41.94251299 -14.88151154 41.94707624 -13.10351562 41.95117188 C-8.73564455 41.96222161 -4.36783652 41.97949669 0 42 C-0.24339111 41.21641113 -0.24339111 41.21641113 -0.49169922 40.41699219 C-1.13740893 37.34661461 -1.1298253 34.46639338 -1.1328125 31.328125 C-1.13410156 30.02359375 -1.13539063 28.7190625 -1.13671875 27.375 C-1.13462402 26.69695312 -1.1325293 26.01890625 -1.13037109 25.3203125 C-1.12505385 23.27075675 -1.13030775 21.22142366 -1.13671875 19.171875 C-1.13542969 17.8621875 -1.13414062 16.5525 -1.1328125 15.203125 C-1.13168457 14.01364258 -1.13055664 12.82416016 -1.12939453 11.59863281 C-0.98981152 7.716645 -0.48181249 3.85449991 0 0 Z " fill="#FEFEFE" transform="translate(317,124)"/>
<path d="M0 0 C0.86784622 -0.00570007 1.73569244 -0.01140015 2.62983704 -0.01727295 C4.47497338 -0.02672804 6.32012665 -0.03325895 8.1652832 -0.03710938 C10.93277599 -0.04668299 13.69948267 -0.07764373 16.46679688 -0.109375 C31.83353155 -0.20123097 49.56216143 -0.22658377 61.30078125 11.203125 C69.51481754 21.78498297 71.41690368 31.00432834 70.30078125 44.203125 C68.4589408 54.03855303 62.71280128 61.28994285 54.69140625 67.08984375 C40.8956867 75.32341626 25.6870224 73.14750128 10.30078125 72.203125 C10.60889863 69.74416882 10.92207113 67.28604193 11.23828125 64.828125 C11.32529297 64.12945312 11.41230469 63.43078125 11.50195312 62.7109375 C12.1875 57.4296875 12.1875 57.4296875 13.30078125 55.203125 C15.59814453 54.85595703 15.59814453 54.85595703 18.62109375 54.7109375 C20.26078125 54.61232422 20.26078125 54.61232422 21.93359375 54.51171875 C24.2379456 54.39057274 26.54264539 54.27585168 28.84765625 54.16796875 C35.43580211 53.75910256 39.94160759 53.1648997 45.30078125 49.203125 C49.06423736 44.4684544 48.79536717 39.08986034 48.65625 33.2734375 C48.0736858 28.24161923 46.30888817 25.96569919 42.51171875 22.6328125 C33.46783333 16.78464631 19.5280321 19.35372369 9.30078125 20.203125 C8.97078125 21.853125 8.64078125 23.503125 8.30078125 25.203125 C7.64078125 25.203125 6.98078125 25.203125 6.30078125 25.203125 C5.26529015 23.78423048 4.2987751 22.31485118 3.36328125 20.828125 C-0.29000691 15.37915283 -4.52753329 11.57111272 -9.5390625 7.4296875 C-11.69921875 5.203125 -11.69921875 5.203125 -11.69921875 1.203125 C-7.79695704 -0.0976289 -4.0690651 0.02080619 0 0 Z " fill="#FEFEFE" transform="translate(421.69921875,122.796875)"/>
<path d="M0 0 C1.26650391 -0.02449219 2.53300781 -0.04898438 3.83789062 -0.07421875 C5.05798828 -0.07808594 6.27808594 -0.08195313 7.53515625 -0.0859375 C8.64383057 -0.09415527 9.75250488 -0.10237305 10.89477539 -0.11083984 C14.64615076 0.48815213 16.30838636 1.66847976 18.9375 4.375 C19.43168123 7.89604126 19.68934222 10.18788071 17.75 13.25 C15.5149211 14.63729035 13.52844622 15.02487213 10.9375 15.375 C11.4325 16.365 11.4325 16.365 11.9375 17.375 C12.58650239 23.39075291 12.18265258 29.16432914 8.9375 34.375 C4.42720219 39.4614636 -0.13189653 43.50867457 -7.0625 44.375 C-13.30975425 44.43169015 -18.98798275 43.12758419 -24.0625 39.375 C-29.91539557 33.06405173 -31.43902548 27.99521201 -31.3359375 19.44921875 C-30.70792096 12.38851848 -27.31756126 8.07953064 -22.0390625 3.6015625 C-15.2404779 -0.61732201 -7.70399622 0.00786523 0 0 Z M-14.875 16.5625 C-16.43177163 18.93862512 -16.9268141 20.52559619 -17.0625 23.375 C-16.21504366 26.23201707 -16.21504366 26.23201707 -14.0625 28.375 C-10.65721004 29.62338381 -10.65721004 29.62338381 -7.0625 29.375 C-4.47916667 27.95833333 -4.47916667 27.95833333 -3.0625 25.375 C-2.45054855 21.7032913 -2.57543494 20.08686432 -4.6875 17 C-8.13549975 14.64084228 -11.27745196 14.20548576 -14.875 16.5625 Z " fill="#FEFEFE" transform="translate(474.0625,238.625)"/>
<path d="M0 0 C22.11 0 44.22 0 67 0 C66 3 66 3 63.625 5.3125 C60.9284773 8.07322562 59.63229034 10.53973539 58 14 C46.40066906 14.84140224 34.86131355 15.22996142 23.23095703 15.02392578 C21.24641176 15.00264263 19.2614254 15.0419593 17.27734375 15.08984375 C10.01871561 15.02688167 10.01871561 15.02688167 7.05078125 12.03515625 C5.4375 9.625 5.4375 9.625 4.18359375 7.2265625 C3.01630871 5.03067974 1.74596889 3.73078655 0 2 C0 1.34 0 0.68 0 0 Z " fill="#FEFEFE" transform="translate(382,239)"/>
<path d="M0 0 C0.25579834 0.67353516 0.51159668 1.34707031 0.77514648 2.04101562 C7.37241372 19.28884994 14.21137532 35.30785665 25.56640625 49.9609375 C27 52 27 52 27 54 C24.4149133 54.13526616 21.83691248 54.23417653 19.25 54.3125 C18.52039063 54.35439453 17.79078125 54.39628906 17.0390625 54.43945312 C13.32980709 54.52375438 11.47852224 54.44656613 8.71875 51.87109375 C8.1515625 50.92363281 7.584375 49.97617187 7 49 C6.38640625 48.02546875 5.7728125 47.0509375 5.140625 46.046875 C-2.59153815 32.56351611 -9.34387267 19.1777391 -13 4 C-11.39850114 3.32694982 -9.79368971 2.66177773 -8.1875 2 C-7.29417969 1.62875 -6.40085938 1.2575 -5.48046875 0.875 C-3 0 -3 0 0 0 Z " fill="#FEFEFE" transform="translate(261,229)"/>
<path d="M0 0 C-0.41012615 8.06581425 -2.82053052 14.61542573 -6 22 C-6.28794434 22.67160156 -6.57588867 23.34320313 -6.87255859 24.03515625 C-9.07723286 29.11584857 -11.47957517 34.06938991 -14 39 C-14.32419922 39.66789551 -14.64839844 40.33579102 -14.98242188 41.02392578 C-17.11548879 45.30615418 -19.25208154 48.90914999 -23 52 C-28.27214447 53.45420365 -33.66346235 52.76610418 -39 52 C-37.5231136 47.81030646 -35.3452414 44.3414531 -32.875 40.6875 C-25.4624818 29.41019428 -19.93913624 17.3984588 -15.12890625 4.81640625 C-14 2 -14 2 -13 1 C-11.00500882 0.76512459 -9.00324911 0.58632629 -7 0.4375 C-5.906875 0.35371094 -4.81375 0.26992187 -3.6875 0.18359375 C-1 0 -1 0 0 0 Z " fill="#FEFEFE" transform="translate(568,231)"/>
<path d="M0 0 C0.66 0 1.32 0 2 0 C2 8.58 2 17.16 2 26 C-1.81161723 26.76232345 -4.75466762 27.13559202 -8.5625 27.125 C-9.95662109 27.12886719 -9.95662109 27.12886719 -11.37890625 27.1328125 C-13.74147476 27.01309964 -15.74030763 26.66993233 -18 26 C-18.28125 23.2265625 -18.28125 23.2265625 -18 20 C-16.09375 18.0859375 -16.09375 18.0859375 -13.5 16.375 C-8.10714676 12.43760431 -5.02234381 8.02060204 -1.59375 2.34375 C-1.0678125 1.5703125 -0.541875 0.796875 0 0 Z " fill="#FDFEFD" transform="translate(428,202)"/>
</svg>
